<?xml version="1.0" encoding="UTF-8" standalone="no"?>
<!DOCTYPE svg PUBLIC "-//W3C//DTD SVG 1.1//EN" "http://www.w3.org/Graphics/SVG/1.1/DTD/svg11.dtd">
<svg width="100%" height="100%" viewBox="0 0 37 37" version="1.1" xmlns="http://www.w3.org/2000/svg" xmlns:xlink="http://www.w3.org/1999/xlink" xml:space="preserve" xmlns:serif="http://www.serif.com/" style="fill-rule:evenodd;clip-rule:evenodd;stroke-linejoin:round;stroke-miterlimit:2;">
    <g transform="matrix(0.5,0,0,0.5,0,0)">
        <g id="Bigger-Twelve" serif:id="Bigger Twelve" transform="matrix(0.350358,0,0,0.350358,-664.108,-32.6628)">
            <g transform="matrix(1.00952,0,0,2.74888,-18.5429,-155.314)">
                <path d="M2052,95.523C2052,93.395 2047.3,91.667 2041.5,91.667L1957.5,91.667C1951.7,91.667 1947,93.395 1947,95.523L1947,162.144C1947,164.272 1951.7,166 1957.5,166L2041.5,166C2047.3,166 2052,164.272 2052,162.144L2052,95.523Z" style="fill:white;"/>
            </g>
            <g transform="matrix(1,0,0,1,1866,49.5)">
                <g transform="matrix(1,0,0,0.609269,-266.5,57.3861)">
                    <path d="M380,106.517C380,105.128 379.313,104 378.467,104L356.533,104C355.687,104 355,105.128 355,106.517L355,126.65C355,128.039 355.687,129.167 356.533,129.167L378.467,129.167C379.313,129.167 380,128.039 380,126.65L380,106.517Z"/>
                </g>
                <g transform="matrix(1,0,0,0.609269,-233.5,57.3861)">
                    <path d="M380,106.517C380,105.128 379.313,104 378.467,104L356.533,104C355.687,104 355,105.128 355,106.517L355,126.65C355,128.039 355.687,129.167 356.533,129.167L378.467,129.167C379.313,129.167 380,128.039 380,126.65L380,106.517Z"/>
                </g>
                <g transform="matrix(1,0,0,0.609269,-200.5,57.3861)">
                    <path d="M380,106.517C380,105.128 379.313,104 378.467,104L356.533,104C355.687,104 355,105.128 355,106.517L355,126.65C355,128.039 355.687,129.167 356.533,129.167L378.467,129.167C379.313,129.167 380,128.039 380,126.65L380,106.517Z"/>
                </g>
                <g transform="matrix(0.88,0,0,1,10.18,-20.75)">
                    <rect x="89" y="159" width="25" height="4" style="fill:rgb(153,153,153);"/>
                </g>
                <g transform="matrix(0.8,0,0,1,50.3,-20.75)">
                    <rect x="89" y="159" width="25" height="4" style="fill:rgb(153,153,153);"/>
                </g>
                <g transform="matrix(1,0,0,1,65.5,-20.75)">
                    <rect x="89" y="159" width="25" height="4" style="fill:rgb(153,153,153);"/>
                </g>
                <g transform="matrix(1,0,0,0.5,-0.5,64.75)">
                    <rect x="89" y="159" width="25" height="4" style="fill:rgb(153,153,153);"/>
                </g>
                <g transform="matrix(0.92,0,0,0.5,39.62,64.75)">
                    <rect x="89" y="159" width="25" height="4" style="fill:rgb(153,153,153);"/>
                </g>
                <g transform="matrix(1,0,0,0.5,65.5,64.75)">
                    <rect x="89" y="159" width="25" height="4" style="fill:rgb(153,153,153);"/>
                </g>
            </g>
            <g transform="matrix(1,0,0,1,1866,82.3333)">
                <g transform="matrix(1,0,0,0.609269,-266.5,57.3861)">
                    <path d="M380,106.517C380,105.128 379.313,104 378.467,104L356.533,104C355.687,104 355,105.128 355,106.517L355,126.65C355,128.039 355.687,129.167 356.533,129.167L378.467,129.167C379.313,129.167 380,128.039 380,126.65L380,106.517Z"/>
                </g>
                <g transform="matrix(1,0,0,0.609269,-233.5,57.3861)">
                    <path d="M380,106.517C380,105.128 379.313,104 378.467,104L356.533,104C355.687,104 355,105.128 355,106.517L355,126.65C355,128.039 355.687,129.167 356.533,129.167L378.467,129.167C379.313,129.167 380,128.039 380,126.65L380,106.517Z"/>
                </g>
                <g transform="matrix(1,0,0,0.609269,-200.5,57.3861)">
                    <path d="M380,106.517C380,105.128 379.313,104 378.467,104L356.533,104C355.687,104 355,105.128 355,106.517L355,126.65C355,128.039 355.687,129.167 356.533,129.167L378.467,129.167C379.313,129.167 380,128.039 380,126.65L380,106.517Z"/>
                </g>
                <g transform="matrix(0.88,0,0,1,10.18,-20.75)">
                    <rect x="89" y="159" width="25" height="4" style="fill:rgb(153,153,153);"/>
                </g>
                <g transform="matrix(0.96,0,0,1,36.06,-20.75)">
                    <rect x="89" y="159" width="25" height="4" style="fill:rgb(153,153,153);"/>
                </g>
                <g transform="matrix(0.72,0,0,1,90.42,-20.75)">
                    <rect x="89" y="159" width="25" height="4" style="fill:rgb(153,153,153);"/>
                </g>
                <g transform="matrix(1,0,0,0.5,-0.5,64.75)">
                    <rect x="89" y="159" width="25" height="4" style="fill:rgb(153,153,153);"/>
                </g>
                <g transform="matrix(0.92,0,0,0.5,39.62,64.75)">
                    <rect x="89" y="159" width="25" height="4" style="fill:rgb(153,153,153);"/>
                </g>
                <g transform="matrix(1,0,0,0.5,65.5,64.75)">
                    <rect x="89" y="159" width="25" height="4" style="fill:rgb(153,153,153);"/>
                </g>
            </g>
            <g transform="matrix(1,0,0,1,1866,115.333)">
                <g transform="matrix(1,0,0,0.609269,-266.5,57.3861)">
                    <path d="M380,106.517C380,105.128 379.313,104 378.467,104L356.533,104C355.687,104 355,105.128 355,106.517L355,126.65C355,128.039 355.687,129.167 356.533,129.167L378.467,129.167C379.313,129.167 380,128.039 380,126.65L380,106.517Z"/>
                </g>
                <g transform="matrix(1,0,0,0.609269,-233.5,57.3861)">
                    <path d="M380,106.517C380,105.128 379.313,104 378.467,104L356.533,104C355.687,104 355,105.128 355,106.517L355,126.65C355,128.039 355.687,129.167 356.533,129.167L378.467,129.167C379.313,129.167 380,128.039 380,126.65L380,106.517Z"/>
                </g>
                <g transform="matrix(1,0,0,0.609269,-200.5,57.3861)">
                    <path d="M380,106.517C380,105.128 379.313,104 378.467,104L356.533,104C355.687,104 355,105.128 355,106.517L355,126.65C355,128.039 355.687,129.167 356.533,129.167L378.467,129.167C379.313,129.167 380,128.039 380,126.65L380,106.517Z"/>
                </g>
                <g transform="matrix(1,0,0,1,-0.5,-20.75)">
                    <rect x="89" y="159" width="25" height="4" style="fill:rgb(153,153,153);"/>
                </g>
                <g transform="matrix(0.72,0,0,1,57.42,-20.75)">
                    <rect x="89" y="159" width="25" height="4" style="fill:rgb(153,153,153);"/>
                </g>
                <g transform="matrix(0.84,0,0,1,79.74,-20.75)">
                    <rect x="89" y="159" width="25" height="4" style="fill:rgb(153,153,153);"/>
                </g>
                <g transform="matrix(1,0,0,0.5,-0.5,64.75)">
                    <rect x="89" y="159" width="25" height="4" style="fill:rgb(153,153,153);"/>
                </g>
                <g transform="matrix(0.92,0,0,0.5,39.62,64.75)">
                    <rect x="89" y="159" width="25" height="4" style="fill:rgb(153,153,153);"/>
                </g>
                <g transform="matrix(1,0,0,0.5,65.5,64.75)">
                    <rect x="89" y="159" width="25" height="4" style="fill:rgb(153,153,153);"/>
                </g>
            </g>
            <g transform="matrix(1,0,0,1,1866,146.333)">
                <g transform="matrix(1,0,0,0.609269,-266.5,57.3861)">
                    <path d="M380,106.517C380,105.128 379.313,104 378.467,104L356.533,104C355.687,104 355,105.128 355,106.517L355,126.65C355,128.039 355.687,129.167 356.533,129.167L378.467,129.167C379.313,129.167 380,128.039 380,126.65L380,106.517Z"/>
                </g>
                <g transform="matrix(1,0,0,0.609269,-233.5,57.3861)">
                    <path d="M380,106.517C380,105.128 379.313,104 378.467,104L356.533,104C355.687,104 355,105.128 355,106.517L355,126.65C355,128.039 355.687,129.167 356.533,129.167L378.467,129.167C379.313,129.167 380,128.039 380,126.65L380,106.517Z"/>
                </g>
                <g transform="matrix(1,0,0,0.609269,-200.5,57.3861)">
                    <path d="M380,106.517C380,105.128 379.313,104 378.467,104L356.533,104C355.687,104 355,105.128 355,106.517L355,126.65C355,128.039 355.687,129.167 356.533,129.167L378.467,129.167C379.313,129.167 380,128.039 380,126.65L380,106.517Z"/>
                </g>
                <g transform="matrix(1,0,0,1,-0.5,-20.75)">
                    <rect x="89" y="159" width="25" height="4" style="fill:rgb(153,153,153);"/>
                </g>
                <g transform="matrix(0.72,0,0,1,57.42,-20.75)">
                    <rect x="89" y="159" width="25" height="4" style="fill:rgb(153,153,153);"/>
                </g>
                <g transform="matrix(0.84,0,0,1,79.74,-20.75)">
                    <rect x="89" y="159" width="25" height="4" style="fill:rgb(153,153,153);"/>
                </g>
                <g transform="matrix(1,0,0,0.5,-0.5,64.75)">
                    <rect x="89" y="159" width="25" height="4" style="fill:rgb(153,153,153);"/>
                </g>
                <g transform="matrix(0.92,0,0,0.5,39.62,64.75)">
                    <rect x="89" y="159" width="25" height="4" style="fill:rgb(153,153,153);"/>
                </g>
                <g transform="matrix(1,0,0,0.5,65.5,64.75)">
                    <rect x="89" y="159" width="25" height="4" style="fill:rgb(153,153,153);"/>
                </g>
            </g>
            <g transform="matrix(1,0,0,1,0,-0.5)">
                <g transform="matrix(3.61098,0,0,1.49331,673.602,-49.7206)">
                    <path d="M380,106.517C380,105.128 379.534,104 378.959,104L356.041,104C355.466,104 355,105.128 355,106.517L355,126.65C355,128.039 355.466,129.167 356.041,129.167L378.959,129.167C379.534,129.167 380,128.039 380,126.65L380,106.517Z"/>
                </g>
                <g transform="matrix(3.04137,0,0,1.50614,1684.82,-93.001)">
                    <rect x="89" y="159" width="25" height="4" style="fill:rgb(153,153,153);"/>
                </g>
                <g transform="matrix(1.52068,0,0,0.725506,1820.16,44.826)">
                    <rect x="89" y="159" width="25" height="4" style="fill:rgb(153,153,153);"/>
                </g>
                <g transform="matrix(3.49312,0,0,0.725492,1644.61,39.8282)">
                    <rect x="89" y="159" width="25" height="4" style="fill:rgb(153,153,153);"/>
                </g>
            </g>
        </g>
    </g>
</svg>
