<?xml version="1.0" encoding="UTF-8" standalone="no"?>
<!DOCTYPE svg PUBLIC "-//W3C//DTD SVG 1.1//EN" "http://www.w3.org/Graphics/SVG/1.1/DTD/svg11.dtd">
<svg width="100%" height="100%" viewBox="0 0 74 74" version="1.1" xmlns="http://www.w3.org/2000/svg" xmlns:xlink="http://www.w3.org/1999/xlink" xml:space="preserve" xmlns:serif="http://www.serif.com/" style="fill-rule:evenodd;clip-rule:evenodd;stroke-linejoin:round;stroke-miterlimit:2;">
    <g id="Lead-6" serif:id="Lead+6" transform="matrix(0.387931,0,0,0.387931,-221.457,-14.7888)">
        <g>
            <g transform="matrix(1.01424,0,0,1,-550.844,4.5)">
                <path d="M1253,81.751C1253,75.817 1248.25,71 1242.4,71L1157.6,71C1151.75,71 1147,75.817 1147,81.751L1147,176.249C1147,182.183 1151.75,187 1157.6,187L1242.4,187C1248.25,187 1253,182.183 1253,176.249L1253,81.751Z" style="fill:white;"/>
            </g>
            <g transform="matrix(1,0,0,1,532.245,36.5)">
                <g transform="matrix(1,0,0,0.609269,-266.5,57.3861)">
                    <path d="M380,106.517C380,105.128 379.313,104 378.467,104L356.533,104C355.687,104 355,105.128 355,106.517L355,126.65C355,128.039 355.687,129.167 356.533,129.167L378.467,129.167C379.313,129.167 380,128.039 380,126.65L380,106.517Z"/>
                </g>
                <g transform="matrix(1,0,0,0.609269,-233.5,57.3861)">
                    <path d="M380,106.517C380,105.128 379.313,104 378.467,104L356.533,104C355.687,104 355,105.128 355,106.517L355,126.65C355,128.039 355.687,129.167 356.533,129.167L378.467,129.167C379.313,129.167 380,128.039 380,126.65L380,106.517Z"/>
                </g>
                <g transform="matrix(1,0,0,0.609269,-200.5,57.3861)">
                    <path d="M380,106.517C380,105.128 379.313,104 378.467,104L356.533,104C355.687,104 355,105.128 355,106.517L355,126.65C355,128.039 355.687,129.167 356.533,129.167L378.467,129.167C379.313,129.167 380,128.039 380,126.65L380,106.517Z"/>
                </g>
                <g transform="matrix(0.88,0,0,1,10.18,-20.75)">
                    <rect x="89" y="159" width="25" height="4" style="fill:rgb(153,153,153);"/>
                </g>
                <g transform="matrix(0.8,0,0,1,50.3,-20.75)">
                    <rect x="89" y="159" width="25" height="4" style="fill:rgb(153,153,153);"/>
                </g>
                <g transform="matrix(1,0,0,1,65.5,-20.75)">
                    <rect x="89" y="159" width="25" height="4" style="fill:rgb(153,153,153);"/>
                </g>
                <g transform="matrix(1,0,0,0.5,-0.5,64.75)">
                    <rect x="89" y="159" width="25" height="4" style="fill:rgb(153,153,153);"/>
                </g>
                <g transform="matrix(0.92,0,0,0.5,39.62,64.75)">
                    <rect x="89" y="159" width="25" height="4" style="fill:rgb(153,153,153);"/>
                </g>
                <g transform="matrix(1,0,0,0.5,65.5,64.75)">
                    <rect x="89" y="159" width="25" height="4" style="fill:rgb(153,153,153);"/>
                </g>
                <g transform="matrix(1,0,0,1,65.5,-57.75)">
                    <rect x="89" y="159" width="25" height="4" style="fill:rgb(153,153,153);"/>
                </g>
                <g transform="matrix(1,0,0,0.5,65.5,27.75)">
                    <rect x="89" y="159" width="25" height="4" style="fill:rgb(153,153,153);"/>
                </g>
                <g transform="matrix(1,0,0,1,65.5,-74.75)">
                    <rect x="89" y="159" width="25" height="4" style="fill:rgb(153,153,153);"/>
                </g>
                <g transform="matrix(1,0,0,0.5,65.5,10.75)">
                    <rect x="89" y="159" width="25" height="4" style="fill:rgb(153,153,153);"/>
                </g>
                <g transform="matrix(1,0,0,0.609269,-200.5,-13.6139)">
                    <path d="M380,106.517C380,105.128 379.313,104 378.467,104L356.533,104C355.687,104 355,105.128 355,106.517L355,126.65C355,128.039 355.687,129.167 356.533,129.167L378.467,129.167C379.313,129.167 380,128.039 380,126.65L380,106.517Z"/>
                </g>
                <g transform="matrix(0.8,0,0,1,83.3,-91.75)">
                    <rect x="89" y="159" width="25" height="4" style="fill:rgb(153,153,153);"/>
                </g>
                <g transform="matrix(1,0,0,0.5,65.5,-6.25)">
                    <rect x="89" y="159" width="25" height="4" style="fill:rgb(153,153,153);"/>
                </g>
            </g>
            <g transform="matrix(2.29098,0,0,1.49331,-192.554,-68.7207)">
                <path d="M380,106.517C380,105.128 379.265,104 378.36,104L356.64,104C355.735,104 355,105.128 355,106.517L355,126.65C355,128.039 355.735,129.167 356.64,129.167L378.36,129.167C379.265,129.167 380,128.039 380,126.65L380,106.517Z"/>
            </g>
            <g transform="matrix(1.70119,0,0,1.50614,469.339,-112.001)">
                <rect x="89" y="159" width="25" height="4" style="fill:rgb(153,153,153);"/>
            </g>
            <g transform="matrix(2.21621,0,0,0.725492,423.503,30.8281)">
                <rect x="89" y="159" width="25" height="4" style="fill:rgb(153,153,153);"/>
            </g>
            <g transform="matrix(2.21621,0,0,0.725492,423.503,25.8281)">
                <rect x="89" y="159" width="25" height="4" style="fill:rgb(153,153,153);"/>
            </g>
            <g transform="matrix(2.21621,0,0,0.725492,423.503,20.8281)">
                <rect x="89" y="159" width="25" height="4" style="fill:rgb(153,153,153);"/>
            </g>
        </g>
    </g>
</svg>
