<?xml version="1.0" encoding="UTF-8" standalone="no"?>
<!DOCTYPE svg PUBLIC "-//W3C//DTD SVG 1.1//EN" "http://www.w3.org/Graphics/SVG/1.1/DTD/svg11.dtd">
<svg width="100%" height="100%" viewBox="0 0 74 74" version="1.1" xmlns="http://www.w3.org/2000/svg" xmlns:xlink="http://www.w3.org/1999/xlink" xml:space="preserve" xmlns:serif="http://www.serif.com/" style="fill-rule:evenodd;clip-rule:evenodd;stroke-linejoin:round;stroke-miterlimit:2;">
    <g id="Nine" transform="matrix(0.401869,0,0,0.401869,-123.949,-23.1495)">
        <g transform="matrix(1,0,0,1.44313,5.01821e-14,-42.9841)">
            <path d="M454,104.3C454,100.271 449.279,97 443.465,97L357.535,97C351.721,97 347,100.271 347,104.3L347,162.7C347,166.729 351.721,170 357.535,170L443.465,170C449.279,170 454,166.729 454,162.7L454,104.3Z" style="fill:white;"/>
        </g>
        <g transform="matrix(1,0,0,1,266.5,-15.75)">
            <g transform="matrix(1,0,0,0.609269,-266.5,57.3861)">
                <path d="M380,106.517C380,105.128 379.313,104 378.467,104L356.533,104C355.687,104 355,105.128 355,106.517L355,126.65C355,128.039 355.687,129.167 356.533,129.167L378.467,129.167C379.313,129.167 380,128.039 380,126.65L380,106.517Z"/>
            </g>
            <g transform="matrix(1,0,0,0.609269,-233.5,57.3861)">
                <path d="M380,106.517C380,105.128 379.313,104 378.467,104L356.533,104C355.687,104 355,105.128 355,106.517L355,126.65C355,128.039 355.687,129.167 356.533,129.167L378.467,129.167C379.313,129.167 380,128.039 380,126.65L380,106.517Z"/>
            </g>
            <g transform="matrix(1,0,0,0.609269,-200.5,57.3861)">
                <path d="M380,106.517C380,105.128 379.313,104 378.467,104L356.533,104C355.687,104 355,105.128 355,106.517L355,126.65C355,128.039 355.687,129.167 356.533,129.167L378.467,129.167C379.313,129.167 380,128.039 380,126.65L380,106.517Z"/>
            </g>
            <g transform="matrix(0.88,0,0,1,10.18,-20.75)">
                <rect x="89" y="159" width="25" height="4" style="fill:rgb(153,153,153);"/>
            </g>
            <g transform="matrix(0.8,0,0,1,50.3,-20.75)">
                <rect x="89" y="159" width="25" height="4" style="fill:rgb(153,153,153);"/>
            </g>
            <g transform="matrix(1,0,0,1,65.5,-20.75)">
                <rect x="89" y="159" width="25" height="4" style="fill:rgb(153,153,153);"/>
            </g>
            <g transform="matrix(1,0,0,0.5,-0.5,64.75)">
                <rect x="89" y="159" width="25" height="4" style="fill:rgb(153,153,153);"/>
            </g>
            <g transform="matrix(0.92,0,0,0.5,39.62,64.75)">
                <rect x="89" y="159" width="25" height="4" style="fill:rgb(153,153,153);"/>
            </g>
            <g transform="matrix(1,0,0,0.5,65.5,64.75)">
                <rect x="89" y="159" width="25" height="4" style="fill:rgb(153,153,153);"/>
            </g>
        </g>
        <g transform="matrix(1,0,0,1,266.5,15.25)">
            <g transform="matrix(1,0,0,0.609269,-266.5,57.3861)">
                <path d="M380,106.517C380,105.128 379.313,104 378.467,104L356.533,104C355.687,104 355,105.128 355,106.517L355,126.65C355,128.039 355.687,129.167 356.533,129.167L378.467,129.167C379.313,129.167 380,128.039 380,126.65L380,106.517Z"/>
            </g>
            <g transform="matrix(1,0,0,0.609269,-233.5,57.3861)">
                <path d="M380,106.517C380,105.128 379.313,104 378.467,104L356.533,104C355.687,104 355,105.128 355,106.517L355,126.65C355,128.039 355.687,129.167 356.533,129.167L378.467,129.167C379.313,129.167 380,128.039 380,126.65L380,106.517Z"/>
            </g>
            <g transform="matrix(1,0,0,0.609269,-200.5,57.3861)">
                <path d="M380,106.517C380,105.128 379.313,104 378.467,104L356.533,104C355.687,104 355,105.128 355,106.517L355,126.65C355,128.039 355.687,129.167 356.533,129.167L378.467,129.167C379.313,129.167 380,128.039 380,126.65L380,106.517Z"/>
            </g>
            <g transform="matrix(0.88,0,0,1,10.18,-20.75)">
                <rect x="89" y="159" width="25" height="4" style="fill:rgb(153,153,153);"/>
            </g>
            <g transform="matrix(0.96,0,0,1,36.06,-20.75)">
                <rect x="89" y="159" width="25" height="4" style="fill:rgb(153,153,153);"/>
            </g>
            <g transform="matrix(0.72,0,0,1,90.42,-20.75)">
                <rect x="89" y="159" width="25" height="4" style="fill:rgb(153,153,153);"/>
            </g>
            <g transform="matrix(1,0,0,0.5,-0.5,64.75)">
                <rect x="89" y="159" width="25" height="4" style="fill:rgb(153,153,153);"/>
            </g>
            <g transform="matrix(0.92,0,0,0.5,39.62,64.75)">
                <rect x="89" y="159" width="25" height="4" style="fill:rgb(153,153,153);"/>
            </g>
            <g transform="matrix(1,0,0,0.5,65.5,64.75)">
                <rect x="89" y="159" width="25" height="4" style="fill:rgb(153,153,153);"/>
            </g>
        </g>
        <g transform="matrix(1,0,0,1,266.5,47.5988)">
            <g transform="matrix(1,0,0,0.609269,-266.5,57.3861)">
                <path d="M380,106.517C380,105.128 379.313,104 378.467,104L356.533,104C355.687,104 355,105.128 355,106.517L355,126.65C355,128.039 355.687,129.167 356.533,129.167L378.467,129.167C379.313,129.167 380,128.039 380,126.65L380,106.517Z"/>
            </g>
            <g transform="matrix(1,0,0,0.609269,-233.5,57.3861)">
                <path d="M380,106.517C380,105.128 379.313,104 378.467,104L356.533,104C355.687,104 355,105.128 355,106.517L355,126.65C355,128.039 355.687,129.167 356.533,129.167L378.467,129.167C379.313,129.167 380,128.039 380,126.65L380,106.517Z"/>
            </g>
            <g transform="matrix(1,0,0,0.609269,-200.5,57.3861)">
                <path d="M380,106.517C380,105.128 379.313,104 378.467,104L356.533,104C355.687,104 355,105.128 355,106.517L355,126.65C355,128.039 355.687,129.167 356.533,129.167L378.467,129.167C379.313,129.167 380,128.039 380,126.65L380,106.517Z"/>
            </g>
            <g transform="matrix(0.88,0,0,1,10.18,-20.75)">
                <rect x="89" y="159" width="25" height="4" style="fill:rgb(153,153,153);"/>
            </g>
            <g transform="matrix(0.96,0,0,1,36.06,-20.75)">
                <rect x="89" y="159" width="25" height="4" style="fill:rgb(153,153,153);"/>
            </g>
            <g transform="matrix(0.72,0,0,1,90.42,-20.75)">
                <rect x="89" y="159" width="25" height="4" style="fill:rgb(153,153,153);"/>
            </g>
            <g transform="matrix(1,0,0,0.5,-0.5,64.75)">
                <rect x="89" y="159" width="25" height="4" style="fill:rgb(153,153,153);"/>
            </g>
            <g transform="matrix(0.92,0,0,0.5,39.62,64.75)">
                <rect x="89" y="159" width="25" height="4" style="fill:rgb(153,153,153);"/>
            </g>
            <g transform="matrix(1,0,0,0.5,65.5,64.75)">
                <rect x="89" y="159" width="25" height="4" style="fill:rgb(153,153,153);"/>
            </g>
        </g>
    </g>
</svg>
