<?xml version="1.0" encoding="UTF-8" standalone="no"?>
<!DOCTYPE svg PUBLIC "-//W3C//DTD SVG 1.1//EN" "http://www.w3.org/Graphics/SVG/1.1/DTD/svg11.dtd">
<svg width="100%" height="100%" viewBox="0 0 37 37" version="1.1" xmlns="http://www.w3.org/2000/svg" xmlns:xlink="http://www.w3.org/1999/xlink" xml:space="preserve" xmlns:serif="http://www.serif.com/" style="fill-rule:evenodd;clip-rule:evenodd;stroke-linejoin:round;stroke-miterlimit:2;">
    <g transform="matrix(0.5,0,0,0.5,0,0)">
        <g id="Bigger" transform="matrix(0.398506,0,0,0.398506,-760.012,-16.5327)">
            <g transform="matrix(1.00952,0,0,1.01345,-18.5429,3.76681)">
                <path d="M2052,99.1C2052,94.998 2048.66,91.667 2044.54,91.667L1954.46,91.667C1950.34,91.667 1947,94.998 1947,99.1L1947,158.567C1947,162.669 1950.34,166 1954.46,166L2044.54,166C2048.66,166 2052,162.669 2052,158.567L2052,99.1Z" style="fill:white;"/>
            </g>
            <g>
                <g transform="matrix(3.61098,0,0,1.49331,673.602,-49.7206)">
                    <path d="M380,106.517C380,105.128 379.534,104 378.959,104L356.041,104C355.466,104 355,105.128 355,106.517L355,126.65C355,128.039 355.466,129.167 356.041,129.167L378.959,129.167C379.534,129.167 380,128.039 380,126.65L380,106.517Z"/>
                </g>
                <g transform="matrix(2.68137,0,0,1.50614,1716.86,-93.001)">
                    <rect x="89" y="159" width="25" height="4" style="fill:rgb(153,153,153);"/>
                </g>
                <g transform="matrix(3.49312,0,0,0.725492,1644.61,44.8282)">
                    <rect x="89" y="159" width="25" height="4" style="fill:rgb(153,153,153);"/>
                </g>
                <g transform="matrix(3.37312,0,0,0.725492,1655.29,39.8282)">
                    <rect x="89" y="159" width="25" height="4" style="fill:rgb(153,153,153);"/>
                </g>
            </g>
        </g>
    </g>
</svg>
