<?xml version="1.0" encoding="UTF-8" standalone="no"?>
<!DOCTYPE svg PUBLIC "-//W3C//DTD SVG 1.1//EN" "http://www.w3.org/Graphics/SVG/1.1/DTD/svg11.dtd">
<svg width="100%" height="100%" viewBox="0 0 37 37" version="1.1" xmlns="http://www.w3.org/2000/svg" xmlns:xlink="http://www.w3.org/1999/xlink" xml:space="preserve" xmlns:serif="http://www.serif.com/" style="fill-rule:evenodd;clip-rule:evenodd;stroke-linejoin:round;stroke-miterlimit:2;">
    <g transform="matrix(0.5,0,0,0.5,0,0)">
        <g id="List" transform="matrix(0.388327,0,0,0.388327,-221.82,-15.4242)">
            <g transform="matrix(1,0,0,1.02804,0,-2.24299)">
                <path d="M720,90.408C720,84.664 715.205,80 709.3,80L623.7,80C617.795,80 613,84.664 613,90.408L613,176.592C613,182.336 617.795,187 623.7,187L709.3,187C715.205,187 720,182.336 720,176.592L720,90.408Z" style="fill:white;"/>
            </g>
            <g transform="matrix(1,0,0,1,-267.159,43.8333)">
                <g transform="matrix(6.2001e-17,-1.01255,1.39072,8.51572e-17,743.532,497.871)">
                    <path d="M380,105.82C380,104.816 378.88,104 377.5,104L357.5,104C356.12,104 355,104.816 355,105.82L355,127.347C355,128.351 356.12,129.167 357.5,129.167L377.5,129.167C378.88,129.167 380,128.351 380,127.347L380,105.82Z"/>
                </g>
                <g transform="matrix(2.05621,0,0,1.50614,744.743,-125.388)">
                    <rect x="89" y="159" width="25" height="4" style="fill:rgb(153,153,153);"/>
                </g>
                <g transform="matrix(1.21621,0,0,0.725492,819.503,17.4409)">
                    <rect x="89" y="159" width="25" height="4" style="fill:rgb(153,153,153);"/>
                </g>
                <g transform="matrix(1.69621,0,0,0.725492,776.783,12.4409)">
                    <rect x="89" y="159" width="25" height="4" style="fill:rgb(153,153,153);"/>
                </g>
                <g transform="matrix(2.05621,0,0,0.725492,744.743,7.44093)">
                    <rect x="89" y="159" width="25" height="4" style="fill:rgb(153,153,153);"/>
                </g>
            </g>
            <g transform="matrix(1,0,0,1,-267.159,-24.1667)">
                <g transform="matrix(6.2001e-17,-1.01255,1.39072,8.51572e-17,743.532,497.871)">
                    <path d="M380,105.82C380,104.816 378.88,104 377.5,104L357.5,104C356.12,104 355,104.816 355,105.82L355,127.347C355,128.351 356.12,129.167 357.5,129.167L377.5,129.167C378.88,129.167 380,128.351 380,127.347L380,105.82Z"/>
                </g>
                <g transform="matrix(1.57837,0,0,1.50614,787.27,-125.388)">
                    <rect x="89" y="159" width="25" height="4" style="fill:rgb(153,153,153);"/>
                </g>
                <g transform="matrix(2.05621,0,0,0.725492,744.743,17.4409)">
                    <rect x="89" y="159" width="25" height="4" style="fill:rgb(153,153,153);"/>
                </g>
                <g transform="matrix(2.05621,0,0,0.725492,744.743,12.4409)">
                    <rect x="89" y="159" width="25" height="4" style="fill:rgb(153,153,153);"/>
                </g>
                <g transform="matrix(2.05621,0,0,0.725492,744.743,7.44093)">
                    <rect x="89" y="159" width="25" height="4" style="fill:rgb(153,153,153);"/>
                </g>
            </g>
            <g transform="matrix(1,0,0,1,-267.159,9.83331)">
                <g transform="matrix(6.2001e-17,-1.01255,1.39072,8.51572e-17,743.532,497.871)">
                    <path d="M380,105.82C380,104.816 378.88,104 377.5,104L357.5,104C356.12,104 355,104.816 355,105.82L355,127.347C355,128.351 356.12,129.167 357.5,129.167L377.5,129.167C378.88,129.167 380,128.351 380,127.347L380,105.82Z"/>
                </g>
                <g transform="matrix(1.81837,0,0,1.50614,765.91,-125.388)">
                    <rect x="89" y="159" width="25" height="4" style="fill:rgb(153,153,153);"/>
                </g>
                <g transform="matrix(1.49621,0,0,0.725492,794.583,12.4409)">
                    <rect x="89" y="159" width="25" height="4" style="fill:rgb(153,153,153);"/>
                </g>
                <g transform="matrix(2.05621,0,0,0.725492,744.743,7.44093)">
                    <rect x="89" y="159" width="25" height="4" style="fill:rgb(153,153,153);"/>
                </g>
            </g>
        </g>
        <g id="List-Alter" serif:id="List Alter" transform="matrix(0.388327,0,0,0.388327,-221.82,-15.4242)">
            <g transform="matrix(1,0,0,1.02804,0,-2.24299)">
                <path d="M720,90.408C720,84.664 715.205,80 709.3,80L623.7,80C617.795,80 613,84.664 613,90.408L613,176.592C613,182.336 617.795,187 623.7,187L709.3,187C715.205,187 720,182.336 720,176.592L720,90.408Z" style="fill:white;"/>
            </g>
            <g transform="matrix(1,0,0,1,-267.159,43.8333)">
                <g transform="matrix(6.2001e-17,-1.01255,1.39072,8.51572e-17,743.532,497.871)">
                    <path d="M380,105.82C380,104.816 378.88,104 377.5,104L357.5,104C356.12,104 355,104.816 355,105.82L355,127.347C355,128.351 356.12,129.167 357.5,129.167L377.5,129.167C378.88,129.167 380,128.351 380,127.347L380,105.82Z"/>
                </g>
                <g transform="matrix(2.05621,0,0,1.50614,744.743,-125.388)">
                    <rect x="89" y="159" width="25" height="4" style="fill:rgb(153,153,153);"/>
                </g>
                <g transform="matrix(1.21621,0,0,0.725492,819.503,17.4409)">
                    <rect x="89" y="159" width="25" height="4" style="fill:rgb(153,153,153);"/>
                </g>
                <g transform="matrix(1.69621,0,0,0.725492,776.783,12.4409)">
                    <rect x="89" y="159" width="25" height="4" style="fill:rgb(153,153,153);"/>
                </g>
                <g transform="matrix(2.05621,0,0,0.725492,744.743,7.44093)">
                    <rect x="89" y="159" width="25" height="4" style="fill:rgb(153,153,153);"/>
                </g>
            </g>
            <g transform="matrix(1,0,0,1,-267.159,-24.1667)">
                <g transform="matrix(6.2001e-17,-1.01255,1.39072,8.51572e-17,743.532,497.871)">
                    <path d="M380,105.82C380,104.816 378.88,104 377.5,104L357.5,104C356.12,104 355,104.816 355,105.82L355,127.347C355,128.351 356.12,129.167 357.5,129.167L377.5,129.167C378.88,129.167 380,128.351 380,127.347L380,105.82Z"/>
                </g>
                <g transform="matrix(1.57837,0,0,1.50614,787.27,-125.388)">
                    <rect x="89" y="159" width="25" height="4" style="fill:rgb(153,153,153);"/>
                </g>
                <g transform="matrix(2.05621,0,0,0.725492,744.743,17.4409)">
                    <rect x="89" y="159" width="25" height="4" style="fill:rgb(153,153,153);"/>
                </g>
                <g transform="matrix(2.05621,0,0,0.725492,744.743,12.4409)">
                    <rect x="89" y="159" width="25" height="4" style="fill:rgb(153,153,153);"/>
                </g>
                <g transform="matrix(2.05621,0,0,0.725492,744.743,7.44093)">
                    <rect x="89" y="159" width="25" height="4" style="fill:rgb(153,153,153);"/>
                </g>
            </g>
            <g transform="matrix(1,0,0,1,-267.159,9.83331)">
                <g transform="matrix(6.2001e-17,-1.01255,1.39072,8.51572e-17,797.61,497.871)">
                    <path d="M380,105.82C380,104.816 378.88,104 377.5,104L357.5,104C356.12,104 355,104.816 355,105.82L355,127.347C355,128.351 356.12,129.167 357.5,129.167L377.5,129.167C378.88,129.167 380,128.351 380,127.347L380,105.82Z"/>
                </g>
                <g transform="matrix(1.81837,0,0,1.50614,726.332,-126.376)">
                    <rect x="89" y="159" width="25" height="4" style="fill:rgb(153,153,153);"/>
                </g>
                <g transform="matrix(1.49621,0,0,0.725492,755.005,11.4532)">
                    <rect x="89" y="159" width="25" height="4" style="fill:rgb(153,153,153);"/>
                </g>
                <g transform="matrix(2.05621,0,0,0.725492,705.165,6.45321)">
                    <rect x="89" y="159" width="25" height="4" style="fill:rgb(153,153,153);"/>
                </g>
            </g>
        </g>
    </g>
</svg>
