<?xml version="1.0" encoding="UTF-8" standalone="no"?>
<!DOCTYPE svg PUBLIC "-//W3C//DTD SVG 1.1//EN" "http://www.w3.org/Graphics/SVG/1.1/DTD/svg11.dtd">
<svg width="100%" height="100%" viewBox="0 0 37 37" version="1.1" xmlns="http://www.w3.org/2000/svg" xmlns:xlink="http://www.w3.org/1999/xlink" xml:space="preserve" xmlns:serif="http://www.serif.com/" style="fill-rule:evenodd;clip-rule:evenodd;stroke-linejoin:round;stroke-miterlimit:2;">
    <g transform="matrix(0.5,0,0,0.5,0,0)">
        <g id="Four-Cards" serif:id="Four Cards" transform="matrix(0.387755,0,0,0.387755,-21.3571,-14.9592)">
            <g transform="matrix(1.36111,0,0,1.27108,-31.8889,-36.0075)">
                <path d="M188,117.15C188,114.86 186.263,113 184.124,113L83.876,113C81.737,113 80,114.86 80,117.15L80,150.35C80,152.64 81.737,154.5 83.876,154.5L184.124,154.5C186.263,154.5 188,152.64 188,150.35L188,117.15Z" style="fill:white;"/>
            </g>
            <g transform="matrix(1.17601,0,0,1.49688,-332.984,-41.1779)">
                <path d="M380,105.964C380,104.88 378.88,104 377.5,104L357.5,104C356.12,104 355,104.88 355,105.964L355,127.203C355,128.287 356.12,129.167 357.5,129.167L377.5,129.167C378.88,129.167 380,128.287 380,127.203L380,105.964Z"/>
            </g>
            <g transform="matrix(0.68794,0,0,1.50614,26.0236,-102.305)">
                <rect x="89" y="159" width="25" height="4" style="fill:rgb(153,153,153);"/>
            </g>
            <g transform="matrix(0.896206,0,0,0.725492,7.48796,30.5242)">
                <rect x="89" y="159" width="25" height="4" style="fill:rgb(153,153,153);"/>
            </g>
            <g transform="matrix(1.17601,0,0,1.49688,-298.984,-41.1779)">
                <path d="M380,105.964C380,104.88 378.88,104 377.5,104L357.5,104C356.12,104 355,104.88 355,105.964L355,127.203C355,128.287 356.12,129.167 357.5,129.167L377.5,129.167C378.88,129.167 380,128.287 380,127.203L380,105.964Z"/>
            </g>
            <g transform="matrix(0.805986,0,0,1.50614,49.5175,-102.305)">
                <rect x="89" y="159" width="25" height="4" style="fill:rgb(153,153,153);"/>
            </g>
            <g transform="matrix(0.569989,0,0,0.725492,70.5213,30.5242)">
                <rect x="89" y="159" width="25" height="4" style="fill:rgb(153,153,153);"/>
            </g>
            <g transform="matrix(1.17601,0,0,1.49688,-264.984,-41.1779)">
                <path d="M380,105.964C380,104.88 378.88,104 377.5,104L357.5,104C356.12,104 355,104.88 355,105.964L355,127.203C355,128.287 356.12,129.167 357.5,129.167L377.5,129.167C378.88,129.167 380,128.287 380,127.203L380,105.964Z"/>
            </g>
            <g transform="matrix(0.925986,0,0,1.50614,72.8375,-102.305)">
                <rect x="89" y="159" width="25" height="4" style="fill:rgb(153,153,153);"/>
            </g>
            <g transform="matrix(0.569989,0,0,0.725492,104.521,30.5242)">
                <rect x="89" y="159" width="25" height="4" style="fill:rgb(153,153,153);"/>
            </g>
            <g transform="matrix(1.17601,0,0,1.49688,-230.984,-41.1779)">
                <path d="M380,105.964C380,104.88 378.88,104 377.5,104L357.5,104C356.12,104 355,104.88 355,105.964L355,127.203C355,128.287 356.12,129.167 357.5,129.167L377.5,129.167C378.88,129.167 380,128.287 380,127.203L380,105.964Z"/>
            </g>
            <g transform="matrix(0.685986,0,0,1.50614,128.073,-102.084)">
                <rect x="89" y="159" width="25" height="4" style="fill:rgb(153,153,153);"/>
            </g>
            <g transform="matrix(0.925125,0,0,0.725492,106.789,30.7449)">
                <rect x="89" y="159" width="25" height="4" style="fill:rgb(153,153,153);"/>
            </g>
        </g>
    </g>
</svg>
