<?xml version="1.0" encoding="UTF-8" standalone="no"?>
<!DOCTYPE svg PUBLIC "-//W3C//DTD SVG 1.1//EN" "http://www.w3.org/Graphics/SVG/1.1/DTD/svg11.dtd">
<svg width="100%" height="100%" viewBox="0 0 37 37" version="1.1" xmlns="http://www.w3.org/2000/svg" xmlns:xlink="http://www.w3.org/1999/xlink" xml:space="preserve" xmlns:serif="http://www.serif.com/" style="fill-rule:evenodd;clip-rule:evenodd;stroke-linejoin:round;stroke-miterlimit:2;">
    <g transform="matrix(0.5,0,0,0.5,0,0)">
        <g id="Big-Twelve" serif:id="Big Twelve" transform="matrix(0.394782,0,0,0.394782,-436.801,-26.3625)">
            <g transform="matrix(1.00943,0,0,1.5431,-10.8208,-38.5603)">
                <path d="M1253,77.934C1253,74.107 1248.25,71 1242.4,71L1157.6,71C1151.75,71 1147,74.107 1147,77.934L1147,180.066C1147,183.893 1151.75,187 1157.6,187L1242.4,187C1248.25,187 1253,183.893 1253,180.066L1253,77.934Z" style="fill:white;"/>
            </g>
            <g transform="matrix(1,0,0,1,267.341,-33.1667)">
                <g transform="matrix(9.45973e-17,-1.54489,2.06622,1.26519e-16,673.281,700.159)">
                    <path d="M380,105.869C380,104.838 378.88,104 377.5,104L357.5,104C356.12,104 355,104.838 355,105.869L355,127.298C355,128.329 356.12,129.167 357.5,129.167L377.5,129.167C378.88,129.167 380,128.329 380,127.298L380,105.869Z"/>
                </g>
                <g transform="matrix(0.933577,0,0,1.50614,865.657,-125.388)">
                    <rect x="89" y="159" width="25" height="4" style="fill:rgb(153,153,153);"/>
                </g>
                <g transform="matrix(1.21621,0,0,0.725492,840.503,17.4409)">
                    <rect x="89" y="159" width="25" height="4" style="fill:rgb(153,153,153);"/>
                </g>
                <g transform="matrix(1.21621,0,0,0.725492,840.503,12.4409)">
                    <rect x="89" y="159" width="25" height="4" style="fill:rgb(153,153,153);"/>
                </g>
                <g transform="matrix(1.21621,0,0,0.725492,840.503,7.44093)">
                    <rect x="89" y="159" width="25" height="4" style="fill:rgb(153,153,153);"/>
                </g>
            </g>
            <g transform="matrix(1,0,0,1,1067,3.99997)">
                <g transform="matrix(1,0,0,0.609269,-266.5,57.3861)">
                    <path d="M380,106.517C380,105.128 379.313,104 378.467,104L356.533,104C355.687,104 355,105.128 355,106.517L355,126.65C355,128.039 355.687,129.167 356.533,129.167L378.467,129.167C379.313,129.167 380,128.039 380,126.65L380,106.517Z"/>
                </g>
                <g transform="matrix(1,0,0,0.609269,-233.5,57.3861)">
                    <path d="M380,106.517C380,105.128 379.313,104 378.467,104L356.533,104C355.687,104 355,105.128 355,106.517L355,126.65C355,128.039 355.687,129.167 356.533,129.167L378.467,129.167C379.313,129.167 380,128.039 380,126.65L380,106.517Z"/>
                </g>
                <g transform="matrix(1,0,0,0.609269,-200.5,57.3861)">
                    <path d="M380,106.517C380,105.128 379.313,104 378.467,104L356.533,104C355.687,104 355,105.128 355,106.517L355,126.65C355,128.039 355.687,129.167 356.533,129.167L378.467,129.167C379.313,129.167 380,128.039 380,126.65L380,106.517Z"/>
                </g>
                <g transform="matrix(0.88,0,0,1,10.18,-20.75)">
                    <rect x="89" y="159" width="25" height="4" style="fill:rgb(153,153,153);"/>
                </g>
                <g transform="matrix(0.8,0,0,1,50.3,-20.75)">
                    <rect x="89" y="159" width="25" height="4" style="fill:rgb(153,153,153);"/>
                </g>
                <g transform="matrix(1,0,0,1,65.5,-20.75)">
                    <rect x="89" y="159" width="25" height="4" style="fill:rgb(153,153,153);"/>
                </g>
                <g transform="matrix(1,0,0,0.5,-0.5,64.75)">
                    <rect x="89" y="159" width="25" height="4" style="fill:rgb(153,153,153);"/>
                </g>
                <g transform="matrix(0.92,0,0,0.5,39.62,64.75)">
                    <rect x="89" y="159" width="25" height="4" style="fill:rgb(153,153,153);"/>
                </g>
                <g transform="matrix(1,0,0,0.5,65.5,64.75)">
                    <rect x="89" y="159" width="25" height="4" style="fill:rgb(153,153,153);"/>
                </g>
            </g>
            <g transform="matrix(1,0,0,1,1067,35)">
                <g transform="matrix(1,0,0,0.609269,-266.5,57.3861)">
                    <path d="M380,106.517C380,105.128 379.313,104 378.467,104L356.533,104C355.687,104 355,105.128 355,106.517L355,126.65C355,128.039 355.687,129.167 356.533,129.167L378.467,129.167C379.313,129.167 380,128.039 380,126.65L380,106.517Z"/>
                </g>
                <g transform="matrix(1,0,0,0.609269,-233.5,57.3861)">
                    <path d="M380,106.517C380,105.128 379.313,104 378.467,104L356.533,104C355.687,104 355,105.128 355,106.517L355,126.65C355,128.039 355.687,129.167 356.533,129.167L378.467,129.167C379.313,129.167 380,128.039 380,126.65L380,106.517Z"/>
                </g>
                <g transform="matrix(1,0,0,0.609269,-200.5,57.3861)">
                    <path d="M380,106.517C380,105.128 379.313,104 378.467,104L356.533,104C355.687,104 355,105.128 355,106.517L355,126.65C355,128.039 355.687,129.167 356.533,129.167L378.467,129.167C379.313,129.167 380,128.039 380,126.65L380,106.517Z"/>
                </g>
                <g transform="matrix(0.88,0,0,1,10.18,-20.75)">
                    <rect x="89" y="159" width="25" height="4" style="fill:rgb(153,153,153);"/>
                </g>
                <g transform="matrix(0.96,0,0,1,36.06,-20.75)">
                    <rect x="89" y="159" width="25" height="4" style="fill:rgb(153,153,153);"/>
                </g>
                <g transform="matrix(0.72,0,0,1,90.42,-20.75)">
                    <rect x="89" y="159" width="25" height="4" style="fill:rgb(153,153,153);"/>
                </g>
                <g transform="matrix(1,0,0,0.5,-0.5,64.75)">
                    <rect x="89" y="159" width="25" height="4" style="fill:rgb(153,153,153);"/>
                </g>
                <g transform="matrix(0.92,0,0,0.5,39.62,64.75)">
                    <rect x="89" y="159" width="25" height="4" style="fill:rgb(153,153,153);"/>
                </g>
                <g transform="matrix(1,0,0,0.5,65.5,64.75)">
                    <rect x="89" y="159" width="25" height="4" style="fill:rgb(153,153,153);"/>
                </g>
            </g>
            <g transform="matrix(1,0,0,1,1067,65)">
                <g transform="matrix(1,0,0,0.609269,-266.5,57.3861)">
                    <path d="M380,106.517C380,105.128 379.313,104 378.467,104L356.533,104C355.687,104 355,105.128 355,106.517L355,126.65C355,128.039 355.687,129.167 356.533,129.167L378.467,129.167C379.313,129.167 380,128.039 380,126.65L380,106.517Z"/>
                </g>
                <g transform="matrix(1,0,0,0.609269,-233.5,57.3861)">
                    <path d="M380,106.517C380,105.128 379.313,104 378.467,104L356.533,104C355.687,104 355,105.128 355,106.517L355,126.65C355,128.039 355.687,129.167 356.533,129.167L378.467,129.167C379.313,129.167 380,128.039 380,126.65L380,106.517Z"/>
                </g>
                <g transform="matrix(1,0,0,0.609269,-200.5,57.3861)">
                    <path d="M380,106.517C380,105.128 379.313,104 378.467,104L356.533,104C355.687,104 355,105.128 355,106.517L355,126.65C355,128.039 355.687,129.167 356.533,129.167L378.467,129.167C379.313,129.167 380,128.039 380,126.65L380,106.517Z"/>
                </g>
                <g transform="matrix(0.4,0,0,1,52.9,-20.75)">
                    <rect x="89" y="159" width="25" height="4" style="fill:rgb(153,153,153);"/>
                </g>
                <g transform="matrix(0.84,0,0,1,46.74,-20.75)">
                    <rect x="89" y="159" width="25" height="4" style="fill:rgb(153,153,153);"/>
                </g>
                <g transform="matrix(1,0,0,1,65.5,-20.75)">
                    <rect x="89" y="159" width="25" height="4" style="fill:rgb(153,153,153);"/>
                </g>
                <g transform="matrix(1,0,0,0.5,-0.5,64.75)">
                    <rect x="89" y="159" width="25" height="4" style="fill:rgb(153,153,153);"/>
                </g>
                <g transform="matrix(0.92,0,0,0.5,39.62,64.75)">
                    <rect x="89" y="159" width="25" height="4" style="fill:rgb(153,153,153);"/>
                </g>
                <g transform="matrix(1,0,0,0.5,65.5,64.75)">
                    <rect x="89" y="159" width="25" height="4" style="fill:rgb(153,153,153);"/>
                </g>
            </g>
            <g transform="matrix(1,0,0,1,1067,96)">
                <g transform="matrix(1,0,0,0.609269,-266.5,57.3861)">
                    <path d="M380,106.517C380,105.128 379.313,104 378.467,104L356.533,104C355.687,104 355,105.128 355,106.517L355,126.65C355,128.039 355.687,129.167 356.533,129.167L378.467,129.167C379.313,129.167 380,128.039 380,126.65L380,106.517Z"/>
                </g>
                <g transform="matrix(1,0,0,0.609269,-233.5,57.3861)">
                    <path d="M380,106.517C380,105.128 379.313,104 378.467,104L356.533,104C355.687,104 355,105.128 355,106.517L355,126.65C355,128.039 355.687,129.167 356.533,129.167L378.467,129.167C379.313,129.167 380,128.039 380,126.65L380,106.517Z"/>
                </g>
                <g transform="matrix(1,0,0,0.609269,-200.5,57.3861)">
                    <path d="M380,106.517C380,105.128 379.313,104 378.467,104L356.533,104C355.687,104 355,105.128 355,106.517L355,126.65C355,128.039 355.687,129.167 356.533,129.167L378.467,129.167C379.313,129.167 380,128.039 380,126.65L380,106.517Z"/>
                </g>
                <g transform="matrix(0.4,0,0,1,52.9,-20.75)">
                    <rect x="89" y="159" width="25" height="4" style="fill:rgb(153,153,153);"/>
                </g>
                <g transform="matrix(0.84,0,0,1,46.74,-20.75)">
                    <rect x="89" y="159" width="25" height="4" style="fill:rgb(153,153,153);"/>
                </g>
                <g transform="matrix(1,0,0,1,65.5,-20.75)">
                    <rect x="89" y="159" width="25" height="4" style="fill:rgb(153,153,153);"/>
                </g>
                <g transform="matrix(1,0,0,0.5,-0.5,64.75)">
                    <rect x="89" y="159" width="25" height="4" style="fill:rgb(153,153,153);"/>
                </g>
                <g transform="matrix(0.92,0,0,0.5,39.62,64.75)">
                    <rect x="89" y="159" width="25" height="4" style="fill:rgb(153,153,153);"/>
                </g>
                <g transform="matrix(1,0,0,0.5,65.5,64.75)">
                    <rect x="89" y="159" width="25" height="4" style="fill:rgb(153,153,153);"/>
                </g>
            </g>
        </g>
    </g>
</svg>
