<?xml version="1.0" encoding="UTF-8" standalone="no"?>
<!DOCTYPE svg PUBLIC "-//W3C//DTD SVG 1.1//EN" "http://www.w3.org/Graphics/SVG/1.1/DTD/svg11.dtd">
<svg width="100%" height="100%" viewBox="0 0 37 37" version="1.1" xmlns="http://www.w3.org/2000/svg" xmlns:xlink="http://www.w3.org/1999/xlink" xml:space="preserve" xmlns:serif="http://www.serif.com/" style="fill-rule:evenodd;clip-rule:evenodd;stroke-linejoin:round;stroke-miterlimit:2;">
    <g transform="matrix(0.5,0,0,0.5,0,0)">
        <g id="Four-Titles" serif:id="Four Titles" transform="matrix(0.387755,0,0,0.387755,-21.3571,-14.9592)">
            <g transform="matrix(1.36111,0,0,1.02251,-31.8889,-7.91875)">
                <path d="M188,117.15C188,114.86 186.603,113 184.882,113L83.118,113C81.397,113 80,114.86 80,117.15L80,150.35C80,152.64 81.397,154.5 83.118,154.5L184.882,154.5C186.603,154.5 188,152.64 188,150.35L188,117.15Z" style="fill:white;"/>
            </g>
            <g transform="matrix(0.894256,0,0,1.50614,7.66151,-122.937)">
                <rect x="89" y="159" width="25" height="4" style="fill:rgb(153,153,153);"/>
            </g>
            <g transform="matrix(0.909144,0,0,1.50614,40.3365,-122.937)">
                <rect x="89" y="159" width="25" height="4" style="fill:rgb(153,153,153);"/>
            </g>
            <g transform="matrix(0.99546,0,0,1.50614,100.529,-122.716)">
                <rect x="89" y="159" width="25" height="4" style="fill:rgb(153,153,153);"/>
            </g>
            <g transform="matrix(0.925986,0,0,1.50614,72.8375,-122.937)">
                <rect x="89" y="159" width="25" height="4" style="fill:rgb(153,153,153);"/>
            </g>
            <g transform="matrix(0.68794,0,0,1.50614,26.0236,-115.2)">
                <rect x="89" y="159" width="25" height="4" style="fill:rgb(153,153,153);"/>
            </g>
            <g transform="matrix(0.805986,0,0,1.50614,49.5175,-115.2)">
                <rect x="89" y="159" width="25" height="4" style="fill:rgb(153,153,153);"/>
            </g>
            <g transform="matrix(0.685986,0,0,1.50614,128.073,-114.979)">
                <rect x="89" y="159" width="25" height="4" style="fill:rgb(153,153,153);"/>
            </g>
            <g transform="matrix(0.71967,0,0,1.50614,91.1996,-115.2)">
                <rect x="89" y="159" width="25" height="4" style="fill:rgb(153,153,153);"/>
            </g>
            <g transform="matrix(0.569989,0,0,0.725492,104.521,17.6295)">
                <rect x="89" y="159" width="25" height="4" style="fill:rgb(153,153,153);"/>
            </g>
            <g transform="matrix(0.896206,0,0,0.725492,7.48796,17.6295)">
                <rect x="89" y="159" width="25" height="4" style="fill:rgb(153,153,153);"/>
            </g>
            <g transform="matrix(0.925125,0,0,0.725492,106.789,17.8501)">
                <rect x="89" y="159" width="25" height="4" style="fill:rgb(153,153,153);"/>
            </g>
            <g transform="matrix(0.569989,0,0,0.725492,70.5213,17.6295)">
                <rect x="89" y="159" width="25" height="4" style="fill:rgb(153,153,153);"/>
            </g>
            <g transform="matrix(0.793048,0,0,0.725492,16.669,22.7874)">
                <rect x="89" y="159" width="25" height="4" style="fill:rgb(153,153,153);"/>
            </g>
            <g transform="matrix(0.673147,0,0,0.725492,61.3402,22.7874)">
                <rect x="89" y="159" width="25" height="4" style="fill:rgb(153,153,153);"/>
            </g>
            <g transform="matrix(0.569989,0,0,0.725492,104.521,22.7874)">
                <rect x="89" y="159" width="25" height="4" style="fill:rgb(153,153,153);"/>
            </g>
            <g transform="matrix(0.925125,0,0,0.725492,106.789,23.008)">
                <rect x="89" y="159" width="25" height="4" style="fill:rgb(153,153,153);"/>
            </g>
        </g>
    </g>
</svg>
