<?xml version="1.0" encoding="UTF-8" standalone="no"?>
<!DOCTYPE svg PUBLIC "-//W3C//DTD SVG 1.1//EN" "http://www.w3.org/Graphics/SVG/1.1/DTD/svg11.dtd">
<svg width="100%" height="100%" viewBox="0 0 74 74" version="1.1" xmlns="http://www.w3.org/2000/svg" xmlns:xlink="http://www.w3.org/1999/xlink" xml:space="preserve" xmlns:serif="http://www.serif.com/" style="fill-rule:evenodd;clip-rule:evenodd;stroke-linejoin:round;stroke-miterlimit:2;">
    <g id="_3er" serif:id="3er" transform="matrix(0.402001,0,0,0.402001,-16.7174,-16.7677)">
        <path d="M188,117.15C188,114.86 186.14,113 183.85,113L84.15,113C81.86,113 80,114.86 80,117.15L80,150.35C80,152.64 81.86,154.5 84.15,154.5L183.85,154.5C186.14,154.5 188,152.64 188,150.35L188,117.15Z" style="fill:white;"/>
        <g>
            <g transform="matrix(1,0,0,0.609269,-266.5,57.3861)">
                <path d="M380,106.517C380,105.128 379.313,104 378.467,104L356.533,104C355.687,104 355,105.128 355,106.517L355,126.65C355,128.039 355.687,129.167 356.533,129.167L378.467,129.167C379.313,129.167 380,128.039 380,126.65L380,106.517Z"/>
            </g>
            <g transform="matrix(1,0,0,0.609269,-233.5,57.3861)">
                <path d="M380,106.517C380,105.128 379.313,104 378.467,104L356.533,104C355.687,104 355,105.128 355,106.517L355,126.65C355,128.039 355.687,129.167 356.533,129.167L378.467,129.167C379.313,129.167 380,128.039 380,126.65L380,106.517Z"/>
            </g>
            <g transform="matrix(1,0,0,0.609269,-200.5,57.3861)">
                <path d="M380,106.517C380,105.128 379.313,104 378.467,104L356.533,104C355.687,104 355,105.128 355,106.517L355,126.65C355,128.039 355.687,129.167 356.533,129.167L378.467,129.167C379.313,129.167 380,128.039 380,126.65L380,106.517Z"/>
            </g>
            <g transform="matrix(0.88,0,0,1,10.18,-20.75)">
                <rect x="89" y="159" width="25" height="4" style="fill:rgb(153,153,153);"/>
            </g>
            <g transform="matrix(0.8,0,0,1,50.3,-20.75)">
                <rect x="89" y="159" width="25" height="4" style="fill:rgb(153,153,153);"/>
            </g>
            <g transform="matrix(1,0,0,1,65.5,-20.75)">
                <rect x="89" y="159" width="25" height="4" style="fill:rgb(153,153,153);"/>
            </g>
            <g transform="matrix(1,0,0,0.5,-0.5,64.75)">
                <rect x="89" y="159" width="25" height="4" style="fill:rgb(153,153,153);"/>
            </g>
            <g transform="matrix(0.92,0,0,0.5,39.62,64.75)">
                <rect x="89" y="159" width="25" height="4" style="fill:rgb(153,153,153);"/>
            </g>
            <g transform="matrix(1,0,0,0.5,65.5,64.75)">
                <rect x="89" y="159" width="25" height="4" style="fill:rgb(153,153,153);"/>
            </g>
        </g>
    </g>
</svg>
