<?xml version="1.0" encoding="UTF-8" standalone="no"?><!DOCTYPE svg PUBLIC "-//W3C//DTD SVG 1.1//EN" "http://www.w3.org/Graphics/SVG/1.1/DTD/svg11.dtd"><svg width="100%" height="100%" viewBox="0 0 469 469" version="1.1" xmlns="http://www.w3.org/2000/svg" xmlns:xlink="http://www.w3.org/1999/xlink" xml:space="preserve" xmlns:serif="http://www.serif.com/" style="fill-rule:evenodd;clip-rule:evenodd;stroke-linejoin:round;stroke-miterlimit:2;"><g><g><g><path d="M31.5,349.001l200.5,119.184l203.5,-119.184l-203.5,-119.184l-200.5,119.184Z" style="fill:url(#_Linear1);"/></g><g><path d="M32.748,119.184l203.5,-119.184l0,234l-203.5,115l0,-229.816Z" style="fill:url(#_Linear2);"/></g><g><path d="M236.248,-0l200.5,119.184l-0,229.816l-200.5,-115l-0,-234Z" style="fill:url(#_Linear3);"/></g><g><g><path d="M33,119l67,40l0,232l-67,-38l0,-234Z" style="fill:#f1f1f1;"/><path d="M233.5,314l-66.5,-38l1,154l65.5,38l0,-154Z" style="fill:#f1f1f1;"/></g><g><g><path d="M233.505,314l67.495,-38l-1.015,154l-66.48,38l0,-154Z" style="fill:#f9f9f9;"/></g><g><path d="M437.005,119l-68.003,40l0,232l68.003,-38l-0,-234Z" style="fill:#f9f9f9;"/></g></g><path d="M80,147l52,-32.362l101,59.414l149.5,-87.618l54.5,32.566l-204,119.184l-153,-91.184Z" style="fill:#fff;"/><g><path d="M183.016,82.727l51.614,31.911l52.386,-31.911l-52.386,-31.911l-51.614,31.911Z" style="fill:#fff;"/></g></g></g></g><defs><linearGradient id="_Linear1" x1="0" y1="0" x2="1" y2="0" gradientUnits="userSpaceOnUse" gradientTransform="matrix(1.14425e-14,-192.001,186.871,1.17566e-14,233.5,468.001)"><stop offset="0" style="stop-color:#ccc;stop-opacity:0.5"/><stop offset="0.5" style="stop-color:#f1f1f1;stop-opacity:0.37"/><stop offset="1" style="stop-color:#ccc;stop-opacity:0"/></linearGradient><linearGradient id="_Linear2" x1="0" y1="0" x2="1" y2="0" gradientUnits="userSpaceOnUse" gradientTransform="matrix(-68.5,-158,158,-68.5,100,277)"><stop offset="0" style="stop-color:#dedbd9;stop-opacity:0"/><stop offset="1" style="stop-color:#dedbd9;stop-opacity:0.5"/></linearGradient><linearGradient id="_Linear3" x1="0" y1="0" x2="1" y2="0" gradientUnits="userSpaceOnUse" gradientTransform="matrix(79.75,-183.276,183.276,79.75,234.25,234.092)"><stop offset="0" style="stop-color:#e9e3de;stop-opacity:0"/><stop offset="1" style="stop-color:#e9e3de;stop-opacity:0.5"/></linearGradient></defs></svg>