<?xml version="1.0" encoding="UTF-8" standalone="no"?>
<!DOCTYPE svg PUBLIC "-//W3C//DTD SVG 1.1//EN" "http://www.w3.org/Graphics/SVG/1.1/DTD/svg11.dtd">
<svg width="100%" height="100%" viewBox="0 0 406 469" version="1.1" xmlns="http://www.w3.org/2000/svg" xmlns:xlink="http://www.w3.org/1999/xlink" xml:space="preserve" xmlns:serif="http://www.serif.com/" style="fill-rule:evenodd;clip-rule:evenodd;stroke-linejoin:round;stroke-miterlimit:2;">
    <g transform="matrix(1,0,0,1,-306.3,-89.3031)">
        <g transform="matrix(1,0,0,1,-312.2,-291.697)">
            <g transform="matrix(1,0,0,1.02745,-1.5,216.276)">
                <path d="M620,500L820.5,616L1024,500L820.5,384L620,500Z" style="fill:url(#_Linear1);"/>
            </g>
            <g transform="matrix(1,0,0,1,-200.752,-119)">
                <path d="M820.5,619.184L1024,500L1024,734L820.5,849L820.5,619.184Z" style="fill:url(#_Linear2);"/>
            </g>
            <g transform="matrix(1,0,0,1,203.248,-119)">
                <path d="M620,500L820.5,619.184L820.5,849L620,734L620,500Z" style="fill:url(#_Linear3);"/>
            </g>
            <g>
                <path d="M620,500L687,540L687,772L620,734L620,500Z" style="fill:rgb(55,56,51);"/>
                <path d="M820.5,695L754,657L755,811L820.5,849L820.5,695Z" style="fill:rgb(55,56,51);"/>
                <g transform="matrix(-1.01496,0,0,1,1653.28,0)">
                    <path d="M820.5,695L754,657L755,811L820.5,849L820.5,695Z" style="fill:rgb(122,122,122);"/>
                </g>
                <g transform="matrix(-1.01496,0,0,1,1653.28,0)">
                    <path d="M620,500L687,540L687,772L620,734L620,500Z" style="fill:rgb(122,122,122);"/>
                </g>
                <path d="M667,528L719,495.638L820,555.052L969.5,467.434L1024,500L820,619.184L667,528Z" style="fill:rgb(250,39,66);"/>
                <g transform="matrix(0.257426,0,0,0.275095,610.412,326.18)">
                    <path d="M620,500L820.5,616L1024,500L820.5,384L620,500Z" style="fill:rgb(250,39,66);"/>
                </g>
            </g>
        </g>
    </g>
    <defs>
        <linearGradient id="_Linear1" x1="0" y1="0" x2="1" y2="0" gradientUnits="userSpaceOnUse" gradientTransform="matrix(1.17566e-14,-186.871,192,1.14425e-14,822,615.821)"><stop offset="0" style="stop-color:rgb(204,204,204);stop-opacity:1"/><stop offset="0.5" style="stop-color:rgb(241,241,241);stop-opacity:0.73"/><stop offset="1" style="stop-color:rgb(204,204,204);stop-opacity:0"/></linearGradient>
        <linearGradient id="_Linear2" x1="0" y1="0" x2="1" y2="0" gradientUnits="userSpaceOnUse" gradientTransform="matrix(-68.5,-158,158,-68.5,887.752,777)"><stop offset="0" style="stop-color:rgb(222,219,217);stop-opacity:0"/><stop offset="1" style="stop-color:rgb(222,219,217);stop-opacity:1"/></linearGradient>
        <linearGradient id="_Linear3" x1="0" y1="0" x2="1" y2="0" gradientUnits="userSpaceOnUse" gradientTransform="matrix(79.75,-183.276,183.276,79.75,618.002,734.092)"><stop offset="0" style="stop-color:rgb(233,227,222);stop-opacity:0"/><stop offset="1" style="stop-color:rgb(233,227,222);stop-opacity:1"/></linearGradient>
    </defs>
</svg>
